<svg width="73" height="22" viewBox="0 0 73 22" fill="none" xmlns="http://www.w3.org/2000/svg">
<path d="M12.2472 13.984V17H0.0904C0.0904 11.5944 0.0904 6.1656 0.0904 0.76H12.2472V3.7296H3.1296V7.4648H11.9224V10.3184H3.1296V13.984H12.2472Z" fill="#E54040"/>
<path d="M28.7661 17.0232V5.2376L23.4765 12.2904H22.8733L17.6997 5.2144V17.0232H14.6373V0.783199H18.1637L23.2445 7.7664L28.3253 0.783199H31.8285V17.0232H28.7661ZM43.7064 7.14L43.7992 5.5624H46.5136V17H43.8456L43.7064 15.3296C43.0568 16.6752 41.2704 17.3248 39.9944 17.348C36.6072 17.3712 34.1016 15.2832 34.1016 11.2696C34.1016 7.3256 36.7232 5.2608 40.064 5.284C41.5952 5.284 43.0568 6.0032 43.7064 7.14ZM40.3192 7.8128C38.44 7.8128 36.932 9.0888 36.932 11.2696C36.932 13.4504 38.44 14.7496 40.3192 14.7496C44.7736 14.7496 44.7736 7.8128 40.3192 7.8128ZM55.2444 14.5408C57.17 14.5408 58.4924 13.0792 58.4924 11.2928C58.4924 9.5064 57.286 8.0448 55.2444 8.0448C53.2028 8.0448 51.9964 9.5064 51.9964 11.2928C51.9964 13.0792 53.3188 14.5408 55.2444 14.5408ZM51.7412 21.7792H48.9108V5.5624H51.5556L51.7412 7.14C52.6228 5.864 54.154 5.3072 55.4532 5.3072C58.9796 5.3072 61.3228 7.9288 61.3228 11.2928C61.3228 14.6336 59.2116 17.2784 55.546 17.2784C54.3396 17.2784 52.5532 16.9072 51.7412 15.6544V21.7792ZM72.4588 6.7456L70.8812 8.6016C70.0692 7.836 69.1412 7.5808 68.0508 7.5808C66.7052 7.5808 65.9628 7.9984 65.9628 8.7176C65.9628 9.46 66.6356 9.8776 68.0972 9.9704C70.2548 10.1096 72.9924 10.5968 72.9924 13.636C72.9924 15.6544 71.3452 17.3944 68.074 17.3944C66.2644 17.3944 64.4548 17.0928 62.7844 15.3528L64.1764 13.3344C64.9884 14.2392 66.8444 14.912 68.1204 14.9352C69.1876 14.9584 70.1852 14.4016 70.1852 13.5664C70.1852 12.7776 69.5356 12.4528 67.9116 12.36C65.754 12.1976 63.1788 11.4088 63.1788 8.8104C63.1788 6.1656 65.9164 5.2376 68.0044 5.2376C69.7908 5.2376 71.1364 5.5856 72.4588 6.7456Z" fill="black"/>
</svg>
